<svg id="Layer_1" data-name="Layer 1" xmlns="http://www.w3.org/2000/svg" viewBox="0 0 1110 290.17"><defs><style>.cls-1,.cls-2,.cls-3{fill:#2196f3;}.cls-1{opacity:0.5;}.cls-2{opacity:0.7;}</style></defs><title>image1</title><path class="cls-1" d="M0,0V242c71.68,28.81,178.79,59.53,303,44,156.9-19.61,230.4-99.17,414-179C805.76,68.41,936.55,22.67,1110,0Z" transform="translate(0 0)"/><path class="cls-2" d="M0,0V208c58.39,26.63,146.34,56.53,251,50,140-8.74,217-77.35,365-145C706.64,71.57,839.11,23.49,1016,0Z" transform="translate(0 0)"/><path class="cls-3" d="M0,0V165c133.5,59.85,233.05,58.18,300,45,103.48-20.37,148.18-72,289-132A1188,1188,0,0,1,855,0Z" transform="translate(0 0)"/></svg>